<svg width="32" height="32" viewBox="0 0 32 32" fill="none" xmlns="http://www.w3.org/2000/svg">
<circle cx="16" cy="16" r="16" fill="#F2C94C"/>
<path d="M25.564 16.027C25.757 16.0342 25.9494 16.0024 26.1298 15.9336C26.3102 15.8647 26.4748 15.7601 26.6139 15.6262C26.7529 15.4922 26.8635 15.3316 26.9391 15.1539C27.0146 14.9762 27.0536 14.7851 27.0536 14.592C27.0536 14.3989 27.0146 14.2078 26.9391 14.0301C26.8635 13.8524 26.7529 13.6918 26.6139 13.5578C26.4748 13.4239 26.3102 13.3193 26.1298 13.2504C25.9494 13.1816 25.757 13.1498 25.564 13.157C25.533 13.157 25.504 13.163 25.472 13.165L24.99 11.265C25.1494 11.1454 25.282 10.9938 25.3793 10.8199C25.4767 10.646 25.5366 10.4537 25.5553 10.2554C25.5739 10.057 25.5509 9.85687 25.4878 9.66789C25.4246 9.47891 25.3226 9.30522 25.1884 9.15796C25.0541 9.0107 24.8906 8.89312 24.7082 8.81277C24.5259 8.73241 24.3288 8.69105 24.1295 8.69133C23.9302 8.69162 23.7332 8.73355 23.5511 8.81443C23.369 8.89531 23.2058 9.01336 23.072 9.161L18.182 6.888C18.2331 6.74269 18.2601 6.59002 18.262 6.436C18.2671 6.2443 18.2337 6.05353 18.1638 5.87494C18.0939 5.69635 17.989 5.53357 17.8552 5.39619C17.7214 5.25881 17.5615 5.14963 17.3848 5.07507C17.2081 5.00052 17.0183 4.96211 16.8265 4.96211C16.6347 4.96211 16.4449 5.00052 16.2682 5.07507C16.0915 5.14963 15.9316 5.25881 15.7978 5.39619C15.664 5.53357 15.5591 5.69635 15.4892 5.87494C15.4193 6.05353 15.3859 6.2443 15.391 6.436C15.3935 6.48489 15.3985 6.53363 15.406 6.582L12.292 7.537C12.077 7.26981 11.773 7.08881 11.4357 7.027C11.0983 6.96519 10.75 7.02669 10.4542 7.20029C10.1584 7.37389 9.93483 7.64803 9.82429 7.9727C9.71375 8.29738 9.72358 8.65097 9.852 8.969L6.922 11.585C6.70099 11.4497 6.44715 11.3774 6.188 11.376C5.84496 11.3743 5.51275 11.496 5.25187 11.7187C4.991 11.9415 4.81883 12.2506 4.76672 12.5896C4.71461 12.9287 4.78604 13.2752 4.96799 13.566C5.14994 13.8568 5.4303 14.0726 5.758 14.174L5.564 16.04C5.34532 16.0703 5.13661 16.1508 4.95418 16.2751C4.77175 16.3995 4.62054 16.5643 4.51237 16.7568C4.40419 16.9492 4.34197 17.1641 4.33058 17.3845C4.31919 17.605 4.35893 17.8251 4.4467 18.0277C4.53446 18.2303 4.66788 18.4098 4.83652 18.5523C5.00517 18.6948 5.20447 18.7963 5.41886 18.849C5.63325 18.9017 5.85692 18.9041 6.0724 18.8561C6.28787 18.808 6.48932 18.7108 6.661 18.572L7.627 18.997L7.624 19.027C7.62543 19.3846 7.76042 19.7288 8.00249 19.992C8.24456 20.2552 8.57623 20.4185 8.93246 20.4498C9.28869 20.4811 9.64376 20.3781 9.92802 20.1612C10.2123 19.9442 10.4052 19.6289 10.469 19.277H11.573C11.6596 19.589 11.8496 19.8624 12.1119 20.0524C12.3741 20.2424 12.693 20.3377 13.0165 20.3228C13.34 20.308 13.6488 20.1838 13.8925 19.9705C14.1362 19.7573 14.3003 19.4676 14.358 19.149L17.465 19.251C17.6924 19.4472 17.9769 19.5653 18.2764 19.5878C18.5759 19.6103 18.8748 19.536 19.129 19.376C20.883 20.333 22.3624 21.7236 23.426 23.415C23.3559 23.5854 23.3196 23.7678 23.319 23.952C23.3176 24.1974 23.3792 24.4391 23.4978 24.6539C23.6164 24.8688 23.7881 25.0496 23.9964 25.1793C24.2048 25.3089 24.4429 25.383 24.6881 25.3944C24.9332 25.4058 25.1772 25.3543 25.3967 25.2446C25.6163 25.1349 25.804 24.9708 25.9421 24.7679C26.0802 24.5651 26.164 24.3302 26.1855 24.0857C26.207 23.8412 26.1654 23.5953 26.0649 23.3715C25.9643 23.1476 25.808 22.9533 25.611 22.807C25.1086 22.076 24.7558 21.2529 24.573 20.385C24.8192 20.3068 25.0394 20.1631 25.2101 19.9691C25.3808 19.7752 25.4954 19.5385 25.5416 19.2844C25.5879 19.0302 25.5641 18.7683 25.4727 18.5267C25.3813 18.2851 25.2259 18.0729 25.023 17.913L25.563 16.027H25.564ZM26.129 14.592C26.1288 14.7035 26.0956 14.8124 26.0335 14.905C25.9715 14.9976 25.8834 15.0697 25.7804 15.1123C25.6774 15.1548 25.564 15.1659 25.4547 15.1441C25.3454 15.1223 25.245 15.0686 25.1662 14.9898C25.0874 14.911 25.0337 14.8106 25.0119 14.7013C24.9901 14.592 25.0012 14.4786 25.0437 14.3756C25.0863 14.2726 25.1584 14.1845 25.251 14.1225C25.3436 14.0604 25.4525 14.0272 25.564 14.027C25.7138 14.027 25.8576 14.0865 25.9635 14.1925C26.0695 14.2984 26.129 14.4422 26.129 14.592ZM24.985 13.28C24.7507 13.3847 24.5488 13.5503 24.4004 13.7596C24.2519 13.969 24.1623 14.2143 24.141 14.47H23.02C23.0036 14.2746 22.9471 14.0847 22.854 13.9122C22.7609 13.7396 22.6332 13.588 22.479 13.467L23.886 11.534C24.1015 11.5775 24.3245 11.5637 24.533 11.494L24.985 13.28ZM22.711 18.847L19.813 18.105C19.8013 17.7816 19.6796 17.4719 19.468 17.227L20.638 15.652C20.8176 15.8211 21.0393 15.9388 21.28 15.9928C21.5206 16.0468 21.7714 16.0351 22.006 15.959L23.258 17.893C23.1083 18.008 22.9829 18.1515 22.889 18.3152C22.7951 18.479 22.7346 18.6597 22.711 18.847ZM12.251 9.385L16.332 11.521C16.2448 11.7745 16.2389 12.0489 16.315 12.306L13.695 13.653C13.5616 13.4978 13.3964 13.3731 13.2106 13.2873C13.0248 13.2015 12.8227 13.1568 12.618 13.156C12.606 13.156 12.595 13.159 12.583 13.16L11.64 9.79C11.8754 9.71038 12.086 9.5708 12.251 9.385ZM23.4 11.354L22.033 13.23C21.8024 13.1503 21.5548 13.1336 21.3156 13.1814C21.0764 13.2292 20.8542 13.3398 20.672 13.502L19.081 12.302C19.1357 12.1308 19.1477 11.9489 19.116 11.772L22.823 10.712C22.9455 10.9792 23.1468 11.2026 23.4 11.352V11.354ZM21.596 15.156C21.4845 15.1558 21.3755 15.1226 21.2829 15.0605C21.1903 14.9984 21.1182 14.9102 21.0756 14.8071C21.0331 14.7041 21.0221 14.5907 21.044 14.4814C21.0658 14.372 21.1196 14.2716 21.1985 14.1928C21.2775 14.1141 21.378 14.0604 21.4873 14.0388C21.5967 14.0171 21.7101 14.0283 21.8131 14.071C21.9161 14.1137 22.0041 14.186 22.066 14.2788C22.1279 14.3715 22.161 14.4805 22.161 14.592C22.1607 14.7417 22.1011 14.8851 21.9952 14.9909C21.8892 15.0966 21.7457 15.156 21.596 15.156ZM17.697 12.506C17.5855 12.5058 17.4766 12.4726 17.384 12.4105C17.2914 12.3485 17.2193 12.2604 17.1767 12.1574C17.1342 12.0544 17.1231 11.941 17.1449 11.8317C17.1667 11.7224 17.2204 11.622 17.2992 11.5432C17.378 11.4644 17.4784 11.4107 17.5877 11.3889C17.697 11.3671 17.8104 11.3782 17.9134 11.4207C18.0164 11.4633 18.1045 11.5354 18.1665 11.628C18.2286 11.7206 18.2618 11.8295 18.262 11.941C18.2617 12.0907 18.2021 12.2341 18.0962 12.3399C17.9902 12.4456 17.8467 12.505 17.697 12.505V12.506ZM12.617 14.027C12.7285 14.027 12.8375 14.0601 12.9302 14.122C13.023 14.1839 13.0953 14.2719 13.138 14.3749C13.1807 14.4779 13.1919 14.5913 13.1702 14.7007C13.1486 14.81 13.0949 14.9105 13.0162 14.9895C12.9374 15.0684 12.837 15.1222 12.7276 15.144C12.6183 15.1659 12.5049 15.1549 12.4019 15.1124C12.2988 15.0698 12.2106 14.9977 12.1485 14.9051C12.0864 14.8125 12.0532 14.7035 12.053 14.592C12.053 14.4422 12.1125 14.2984 12.2185 14.1925C12.3244 14.0865 12.4682 14.027 12.618 14.027H12.617ZM14.053 14.592C14.0521 14.4171 14.0189 14.2438 13.955 14.081L16.523 12.761C16.6549 12.9505 16.8306 13.1054 17.0351 13.2125C17.2397 13.3196 17.4671 13.3757 17.698 13.376L17.722 13.374L17.288 17.034L13.382 17.528C13.3037 17.5031 13.2234 17.485 13.142 17.474L12.845 16.004C13.1811 15.9502 13.4871 15.7786 13.7084 15.5199C13.9297 15.2613 14.0518 14.9324 14.053 14.592ZM12.95 18.325C13.0615 18.3252 13.1704 18.3584 13.263 18.4205C13.3556 18.4825 13.4277 18.5706 13.4703 18.6736C13.5128 18.7766 13.5239 18.89 13.5021 18.9993C13.4803 19.1086 13.4266 19.209 13.3478 19.2878C13.269 19.3666 13.1686 19.4203 13.0593 19.4421C12.95 19.4639 12.8366 19.4528 12.7336 19.4103C12.6306 19.3677 12.5425 19.2956 12.4805 19.203C12.4184 19.1104 12.3852 19.0015 12.385 18.89C12.385 18.7402 12.4445 18.5964 12.5505 18.4905C12.6564 18.3845 12.8002 18.325 12.95 18.325ZM14.026 17.95L17.079 17.565C16.9935 17.7486 16.9488 17.9485 16.9479 18.151C16.9471 18.3534 16.9901 18.5537 17.074 18.738L14.361 18.65C14.3163 18.3901 14.2004 18.1478 14.026 17.95ZM18.239 13.268C18.4918 13.1643 18.71 12.9909 18.868 12.768L20.354 13.888C20.2336 14.0917 20.1676 14.323 20.1623 14.5596C20.1571 14.7962 20.2127 15.0301 20.324 15.239L19.081 16.909C18.8905 16.7987 18.6767 16.7349 18.4569 16.7227C18.2371 16.7106 18.0175 16.7504 17.816 16.839L18.239 13.268ZM24.129 9.56C24.2405 9.56 24.3496 9.59308 24.4423 9.65505C24.5351 9.71702 24.6074 9.80511 24.6501 9.90817C24.6928 10.0112 24.7039 10.1246 24.6822 10.234C24.6604 10.3434 24.6067 10.4439 24.5278 10.5228C24.4489 10.6017 24.3484 10.6554 24.239 10.6772C24.1296 10.6989 24.0162 10.6878 23.9132 10.6451C23.8101 10.6024 23.722 10.5301 23.6601 10.4373C23.5981 10.3446 23.565 10.2355 23.565 10.124C23.5653 9.97433 23.6249 9.83087 23.7308 9.72513C23.8368 9.61939 23.9803 9.56 24.13 9.56H24.129ZM22.801 9.586C22.7308 9.7567 22.6944 9.93942 22.694 10.124C22.694 10.159 22.702 10.192 22.704 10.227L18.972 11.293C18.853 11.0569 18.671 10.8583 18.4462 10.7193C18.2213 10.5802 17.9624 10.506 17.698 10.505C17.655 10.505 17.613 10.515 17.571 10.518L17.05 7.848C17.4021 7.79222 17.7207 7.60673 17.943 7.328L22.801 9.586ZM16.826 5.87C16.9375 5.87 17.0465 5.90305 17.1392 5.96498C17.232 6.02691 17.3043 6.11494 17.347 6.21794C17.3897 6.32094 17.4009 6.43429 17.3792 6.54366C17.3576 6.65304 17.3039 6.75354 17.2252 6.83245C17.1464 6.91137 17.046 6.96517 16.9366 6.98704C16.8273 7.00892 16.7139 6.99789 16.6109 6.95535C16.5078 6.91282 16.4196 6.84069 16.3575 6.74807C16.2954 6.65545 16.2622 6.54651 16.262 6.435C16.262 6.28533 16.3214 6.14177 16.4271 6.03584C16.5329 5.92991 16.6763 5.87026 16.826 5.87ZM15.542 7.062C15.6377 7.25916 15.7772 7.43184 15.9498 7.56685C16.1224 7.70186 16.3236 7.79563 16.538 7.841L17.086 10.646C16.879 10.745 16.6986 10.8921 16.56 11.075L12.515 8.959C12.6433 8.6481 12.6515 8.3006 12.538 7.984L15.542 7.062ZM11.182 7.87C11.2935 7.87 11.4025 7.90305 11.4952 7.96498C11.588 8.02691 11.6603 8.11494 11.703 8.21794C11.7457 8.32094 11.7569 8.43429 11.7352 8.54366C11.7136 8.65304 11.6599 8.75354 11.5812 8.83245C11.5024 8.91137 11.402 8.96517 11.2926 8.98704C11.1833 9.00892 11.0699 8.99789 10.9669 8.95535C10.8638 8.91282 10.7756 8.84069 10.7135 8.74807C10.6514 8.65545 10.6182 8.54651 10.618 8.435C10.618 8.28533 10.6774 8.14177 10.7831 8.03584C10.8889 7.92991 11.0323 7.87026 11.182 7.87ZM11.142 9.866L12.092 13.258C11.8175 13.3666 11.5829 13.5568 11.42 13.803L7.621 12.834L7.624 12.811C7.62233 12.4839 7.50789 12.1675 7.3 11.915L10.124 9.396C10.253 9.53894 10.4096 9.65428 10.5844 9.73506C10.7592 9.81584 10.9485 9.86038 11.141 9.866H11.142ZM6.336 17.453C6.336 17.5645 6.30292 17.6736 6.24095 17.7663C6.17898 17.8591 6.09089 17.9314 5.98783 17.9741C5.88478 18.0168 5.77137 18.0279 5.66197 18.0062C5.55256 17.9844 5.45207 17.9307 5.37319 17.8518C5.29431 17.7729 5.2406 17.6724 5.21884 17.563C5.19707 17.4536 5.20824 17.3402 5.25093 17.2372C5.29362 17.1341 5.36591 17.046 5.45866 16.9841C5.55141 16.9221 5.66045 16.889 5.772 16.889C5.9215 16.8893 6.0648 16.9488 6.17052 17.0545C6.27623 17.1602 6.33574 17.3035 6.336 17.453ZM6.066 16.048L6.255 14.24C6.53233 14.227 6.79989 14.1336 7.02517 13.9714C7.25046 13.8091 7.42375 13.5849 7.524 13.326L11.222 14.269C11.1744 14.4576 11.1697 14.6544 11.208 14.845L6.865 16.535C6.66036 16.2879 6.37861 16.1167 6.065 16.049L6.066 16.048ZM6.188 12.246C6.29951 12.246 6.40851 12.2791 6.50124 12.341C6.59396 12.4029 6.66625 12.4909 6.70897 12.5939C6.75169 12.6969 6.76292 12.8103 6.74123 12.9197C6.71955 13.029 6.66594 13.1295 6.58716 13.2085C6.50838 13.2874 6.40798 13.3412 6.29864 13.363C6.1893 13.3849 6.07593 13.3739 5.97286 13.3314C5.86978 13.2888 5.78163 13.2167 5.71954 13.1241C5.65744 13.0315 5.6242 12.9225 5.624 12.811C5.624 12.6613 5.68339 12.5178 5.78913 12.4118C5.89487 12.3059 6.03833 12.2463 6.188 12.246ZM7.005 18.176C7.11448 17.9976 7.18168 17.7966 7.20144 17.5882C7.2212 17.3799 7.193 17.1698 7.119 16.974L11.385 15.314C11.4816 15.4789 11.6101 15.6229 11.7631 15.7375C11.9162 15.852 12.0905 15.9348 12.276 15.981L10.411 18.564C10.3176 18.2865 10.1411 18.0444 9.90557 17.8704C9.67001 17.6965 9.38669 17.5991 9.09396 17.5914C8.80123 17.5838 8.51322 17.6663 8.26891 17.8277C8.0246 17.9891 7.83578 18.2217 7.728 18.494L7.005 18.176ZM9.059 19.591C8.94754 19.5908 8.83863 19.5576 8.74604 19.4955C8.65344 19.4335 8.58131 19.3454 8.53874 19.2424C8.49618 19.1394 8.48509 19.026 8.50689 18.9167C8.52868 18.8074 8.58238 18.707 8.66119 18.6282C8.74001 18.5494 8.84041 18.4957 8.94972 18.4739C9.05904 18.4521 9.17236 18.4632 9.27537 18.5057C9.37839 18.5483 9.46648 18.6204 9.52853 18.713C9.59058 18.8056 9.6238 18.9145 9.624 19.026C9.624 19.1758 9.56447 19.3196 9.45851 19.4255C9.35256 19.5315 9.20885 19.591 9.059 19.591ZM12.466 16.285L12.645 17.487C12.3446 17.5535 12.0736 17.7147 11.8719 17.947C11.6703 18.1793 11.5486 18.4703 11.525 18.777H10.825L12.466 16.285ZM18.382 18.72C18.2705 18.7198 18.1616 18.6866 18.069 18.6245C17.9764 18.5625 17.9043 18.4744 17.8617 18.3714C17.8192 18.2684 17.8081 18.155 17.8299 18.0457C17.8517 17.9364 17.9054 17.836 17.9842 17.7572C18.063 17.6784 18.1634 17.6247 18.2727 17.6029C18.382 17.5811 18.4954 17.5922 18.5984 17.6347C18.7014 17.6773 18.7895 17.7494 18.8515 17.842C18.9136 17.9346 18.9468 18.0435 18.947 18.155C18.947 18.3048 18.8875 18.4486 18.7815 18.5545C18.6756 18.6605 18.5318 18.72 18.382 18.72ZM24.755 24.515C24.6434 24.515 24.5344 24.4819 24.4417 24.4199C24.3489 24.358 24.2766 24.2699 24.2339 24.1668C24.1912 24.0638 24.1801 23.9504 24.2018 23.841C24.2236 23.7316 24.2773 23.6311 24.3562 23.5522C24.4351 23.4733 24.5356 23.4196 24.645 23.3978C24.7544 23.3761 24.8678 23.3872 24.9708 23.4299C25.0739 23.4726 25.162 23.5449 25.2239 23.6377C25.2859 23.7304 25.319 23.8395 25.319 23.951C25.3187 24.1005 25.2592 24.2438 25.1535 24.3495C25.0478 24.4552 24.9045 24.5147 24.755 24.515ZM24.755 22.515C24.5644 22.515 24.3757 22.5532 24.2 22.6272C24.0243 22.7012 23.8652 22.8096 23.732 22.946C22.6673 21.3154 21.2226 19.9678 19.522 19.019C19.6052 18.9099 19.6723 18.7893 19.721 18.661L22.744 19.384C22.8216 19.6844 22.9945 19.9515 23.2369 20.1451C23.4792 20.3388 23.7779 20.4486 24.088 20.458C24.2123 21.1904 24.4753 21.8923 24.863 22.526C24.826 22.523 24.792 22.516 24.755 22.516V22.515ZM24.129 19.591C24.0175 19.591 23.9085 19.5579 23.8158 19.496C23.723 19.4341 23.6507 19.3461 23.608 19.2431C23.5653 19.1401 23.5541 19.0267 23.5758 18.9173C23.5974 18.808 23.6511 18.7075 23.7298 18.6285C23.8086 18.5496 23.909 18.4958 24.0184 18.474C24.1277 18.4521 24.2411 18.4631 24.3441 18.5056C24.4472 18.5482 24.5354 18.6203 24.5975 18.7129C24.6596 18.8055 24.6928 18.9145 24.693 19.026C24.693 19.1757 24.6336 19.3192 24.5279 19.4252C24.4221 19.5311 24.2787 19.5907 24.129 19.591ZM24.573 17.668C24.2923 17.5664 23.9851 17.5643 23.703 17.662L22.454 15.734C22.7068 15.544 22.8896 15.2757 22.974 14.971H24.187C24.2476 15.1898 24.3592 15.391 24.5127 15.5583C24.6662 15.7255 24.8572 15.8539 25.07 15.933L24.573 17.668Z" fill="white"/>
</svg>
