<svg width="32" height="32" viewBox="0 0 32 32" fill="none" xmlns="http://www.w3.org/2000/svg">
<circle cx="16" cy="16" r="16" fill="#A142C3"/>
<path d="M6 14C6 13.4696 6.21071 12.9609 6.58579 12.5858C6.96086 12.2107 7.46957 12 8 12H24C24.5304 12 25.0391 12.2107 25.4142 12.5858C25.7893 12.9609 26 13.4696 26 14V21C26 21.5304 25.7893 22.0391 25.4142 22.4142C25.0391 22.7893 24.5304 23 24 23H20.132C19.7866 23 19.4471 22.9106 19.1466 22.7404C18.8461 22.5702 18.5947 22.3252 18.417 22.029L16.857 19.429C16.7681 19.2811 16.6425 19.1588 16.4923 19.0739C16.3421 18.989 16.1725 18.9443 16 18.9443C15.8275 18.9443 15.6579 18.989 15.5077 19.0739C15.3575 19.1588 15.2319 19.2811 15.143 19.429L13.583 22.029C13.4053 22.3252 13.1539 22.5702 12.8534 22.7404C12.5529 22.9106 12.2134 23 11.868 23H8C7.46957 23 6.96086 22.7893 6.58579 22.4142C6.21071 22.0391 6 21.5304 6 21V14ZM7.813 10.781C8.17819 10.2333 8.67291 9.78418 9.25327 9.4735C9.83364 9.16282 10.4817 9.00018 11.14 9H20.858C21.5165 9.00001 22.1647 9.16257 22.7453 9.47326C23.3258 9.78395 23.8207 10.2332 24.186 10.781L25 12H7L7.813 10.781V10.781Z" stroke="white" stroke-width="2" stroke-linecap="round" stroke-linejoin="round"/>
</svg>
