<svg width="32" height="32" viewBox="0 0 32 32" fill="none" xmlns="http://www.w3.org/2000/svg">
<circle cx="16" cy="16" r="16" fill="#EB5757"/>
<g clip-path="url(#clip0_7_137)">
<path d="M24.2499 13.4617V9.1375C24.2507 8.93075 24.2016 8.72591 24.1054 8.53474C24.0092 8.34357 23.8678 8.16982 23.6893 8.02348C23.5108 7.87714 23.2987 7.76109 23.0652 7.68198C22.8318 7.60287 22.5815 7.56227 22.3288 7.5625H17.0467C16.7003 7.56308 16.3682 7.67539 16.1224 7.87504L5.5624 16.5126C5.20225 16.8082 5.00001 17.2086 5.00001 17.626C5.00001 18.0434 5.20225 18.4438 5.5624 18.7394L10.5897 22.8527C10.9509 23.1474 11.4402 23.3129 11.9504 23.3129C12.4605 23.3129 12.9498 23.1474 13.311 22.8527L23.8679 14.2179C24.112 14.0169 24.2493 13.7451 24.2499 13.4617ZM20.1249 12.0625C19.853 12.0625 19.5871 11.9965 19.361 11.8729C19.1349 11.7493 18.9587 11.5736 18.8546 11.368C18.7505 11.1625 18.7233 10.9363 18.7764 10.718C18.8294 10.4998 18.9604 10.2993 19.1527 10.142C19.345 9.98467 19.59 9.87753 19.8567 9.83412C20.1234 9.79071 20.3999 9.81299 20.6511 9.89814C20.9024 9.98329 21.1171 10.1275 21.2682 10.3125C21.4193 10.4975 21.4999 10.715 21.4999 10.9375C21.4999 11.2359 21.3551 11.522 21.0972 11.733C20.8393 11.944 20.4896 12.0625 20.1249 12.0625Z" fill="white"/>
<path d="M26.3125 9.25C26.1302 9.25 25.9553 9.30926 25.8264 9.41475C25.6974 9.52024 25.625 9.66332 25.625 9.8125V14.2904L14.3968 23.4774C14.3303 23.5291 14.2771 23.5912 14.2404 23.66C14.2036 23.7288 14.1841 23.8029 14.1829 23.878C14.1818 23.9531 14.199 24.0276 14.2335 24.0971C14.2681 24.1667 14.3193 24.2298 14.3842 24.2829C14.4491 24.336 14.5263 24.3779 14.6113 24.4062C14.6963 24.4345 14.7874 24.4486 14.8792 24.4476C14.9709 24.4467 15.0615 24.4307 15.1456 24.4006C15.2297 24.3706 15.3056 24.327 15.3688 24.2726L26.6266 15.0617C26.7464 14.9632 26.841 14.8463 26.9051 14.7177C26.9692 14.5891 27.0015 14.4514 27 14.3125V9.8125C27 9.66332 26.9276 9.52024 26.7986 9.41475C26.6697 9.30926 26.4948 9.25 26.3125 9.25Z" fill="white"/>
</g>
<defs>
<clipPath id="clip0_7_137">
<rect width="22" height="18" fill="white" transform="translate(5 7)"/>
</clipPath>
</defs>
</svg>
